HIERARCHY
ROOT hip
{
  OFFSET 0 0 0
  CHANNELS 6 Xposition Yposition Zposition Zrotation Yrotation Xrotation
  JOINT abdomen
  {
    OFFSET 0 20.6881 -0.73152
    CHANNELS 3 Zrotation Xrotation Yrotation
    JOINT chest
    {
      OFFSET 0 11.7043 -0.48768
      CHANNELS 3 Zrotation Xrotation Yrotation
      JOINT neck
      {
        OFFSET 0 22.1894 -2.19456
        CHANNELS 3 Zrotation Xrotation Yrotation
        JOINT head
        {
          OFFSET -0.24384 7.07133 1.2192
          CHANNELS 3 Zrotation Xrotation Yrotation
          JOINT leftEye
          {
            OFFSET 4.14528 8.04674 8.04672
            CHANNELS 3 Zrotation Xrotation Yrotation
            End Site
            {
              OFFSET 1 0 0
            }
          }
          JOINT rightEye
          {
            OFFSET -3.6576 8.04674 8.04672
            CHANNELS 3 Zrotation Xrotation Yrotation
            End Site
            {
              OFFSET 1 0 0
            }
          }
        }
      }
      JOINT rCollar
      {
        OFFSET -2.68224 19.2634 -4.8768
        CHANNELS 3 Zrotation Xrotation Yrotation
        JOINT rShldr
        {
          OFFSET -8.77824 -1.95073 1.46304
          CHANNELS 3 Zrotation Xrotation Yrotation
          JOINT rForeArm
          {
            OFFSET -28.1742 -1.7115 0.48768
            CHANNELS 3 Zrotation Xrotation Yrotation
            JOINT rHand
            {
              OFFSET -22.5879 0.773209 7.07136
              CHANNELS 3 Zrotation Xrotation Yrotation
              JOINT rThumb1
              {
                OFFSET -1.2192 -0.487915 3.41376
                CHANNELS 3 Zrotation Xrotation Yrotation
                JOINT rThumb2
                {
                  OFFSET -3.37035 -0.52449 3.41376
                  CHANNELS 3 Zrotation Xrotation Yrotation
                  End Site
                  {
                    OFFSET -1.78271 -1.18214 1.43049
                  }
                }
              }
              JOINT rIndex1
              {
                OFFSET -7.75947 0.938293 5.60832
                CHANNELS 3 Zrotation Xrotation Yrotation
                JOINT rIndex2
                {
                  OFFSET -2.54057 -0.884171 1.56538
                  CHANNELS 3 Zrotation Xrotation Yrotation
                  End Site
                  {
                    OFFSET -1.62519 -0.234802 1.16502
                  }
                }
              }
              JOINT rMid1
              {
                OFFSET -8.24714 1.18213 3.41376
                CHANNELS 3 Zrotation Xrotation Yrotation
                JOINT rMid2
                {
                  OFFSET -3.10165 -0.590103 1.0647
                  CHANNELS 3 Zrotation Xrotation Yrotation
                  End Site
                  {
                    OFFSET -2.48547 -0.328903 0.83742
                  }
                }
              }
              JOINT rRing1
              {
                OFFSET -8.82822 0.546677 1.51678
                CHANNELS 3 Zrotation Xrotation Yrotation
                JOINT rRing2
                {
                  OFFSET -2.60934 -0.819778 -0.0198488
                  CHANNELS 3 Zrotation Xrotation Yrotation
                  End Site
                  {
                    OFFSET -2.33842 -0.294052 0.168128
                  }
                }
              }
              JOINT rPinky1
              {
                OFFSET -8.27202 -0.0477905 -0.4584
                CHANNELS 3 Zrotation Xrotation Yrotation
                JOINT rPinky2
                {
                  OFFSET -1.82734 -0.647385 -0.700984
                  CHANNELS 3 Zrotation Xrotation Yrotation
                  End Site
                  {
                    OFFSET -1.69225 -0.51767 -0.607171
                  }
                }
              }
            }
          }
        }
      }
      JOINT lCollar
      {
        OFFSET 2.68224 19.2634 -4.8768
        CHANNELS 3 Zrotation Xrotation Yrotation
        JOINT lShldr
        {
          OFFSET 8.77824 -1.95073 1.46304
          CHANNELS 3 Zrotation Xrotation Yrotation
          JOINT lForeArm
          {
            OFFSET 28.1742 -1.7115 0.48768
            CHANNELS 3 Zrotation Xrotation Yrotation
            JOINT lHand
            {
              OFFSET 22.5879 0.773209 7.07136
              CHANNELS 3 Zrotation Xrotation Yrotation
              JOINT lThumb1
              {
                OFFSET 1.2192 -0.487915 3.41376
                CHANNELS 3 Zrotation Xrotation Yrotation
                JOINT lThumb2
                {
                  OFFSET 3.37035 -0.52449 3.41376
                  CHANNELS 3 Zrotation Xrotation Yrotation
                  End Site
                  {
                    OFFSET 1.78271 -1.18214 1.43049
                  }
                }
              }
              JOINT lIndex1
              {
                OFFSET 7.75947 0.938293 5.60832
                CHANNELS 3 Zrotation Xrotation Yrotation
                JOINT lIndex2
                {
                  OFFSET 2.54057 -0.884171 1.56538
                  CHANNELS 3 Zrotation Xrotation Yrotation
                  End Site
                  {
                    OFFSET 1.62519 -0.234802 1.16502
                  }
                }
              }
              JOINT lMid1
              {
                OFFSET 8.24714 1.18213 3.41376
                CHANNELS 3 Zrotation Xrotation Yrotation
                JOINT lMid2
                {
                  OFFSET 3.10165 -0.590103 1.0647
                  CHANNELS 3 Zrotation Xrotation Yrotation
                  End Site
                  {
                    OFFSET 2.48547 -0.328903 0.83742
                  }
                }
              }
              JOINT lRing1
              {
                OFFSET 8.82822 0.546677 1.51678
                CHANNELS 3 Zrotation Xrotation Yrotation
                JOINT lRing2
                {
                  OFFSET 2.60934 -0.819778 -0.0198488
                  CHANNELS 3 Zrotation Xrotation Yrotation
                  End Site
                  {
                    OFFSET 2.33842 -0.294052 0.168128
                  }
                }
              }
              JOINT lPinky1
              {
                OFFSET 8.27202 -0.0477905 -0.4584
                CHANNELS 3 Zrotation Xrotation Yrotation
                JOINT lPinky2
                {
                  OFFSET 1.82734 -0.647385 -0.700984
                  CHANNELS 3 Zrotation Xrotation Yrotation
                  End Site
                  {
                    OFFSET 1.69225 -0.51767 -0.607171
                  }
                }
              }
            }
          }
        }
      }
    }
  }
  JOINT rButtock
  {
    OFFSET -8.77824 4.35084 1.2192
    CHANNELS 3 Zrotation Xrotation Yrotation
    JOINT rThigh
    {
      OFFSET 0 -1.70687 -2.19456
      CHANNELS 3 Zrotation Xrotation Yrotation
      JOINT rShin
      {
        OFFSET 0 -36.8199 0.73152
        CHANNELS 3 Zrotation Xrotation Yrotation
        JOINT rFoot
        {
          OFFSET 0.73152 -45.1104 -5.12064
          CHANNELS 3 Zrotation Xrotation Yrotation
          End Site
          {
            OFFSET -1.1221 -3.69964 12.103
          }
        }
      }
    }
  }
  JOINT lButtock
  {
    OFFSET 8.77824 4.35084 1.2192
    CHANNELS 3 Zrotation Xrotation Yrotation
    JOINT lThigh
    {
      OFFSET 0 -1.70687 -2.19456
      CHANNELS 3 Zrotation Xrotation Yrotation
      JOINT lShin
      {
        OFFSET 0 -36.8199 0.73152
        CHANNELS 3 Zrotation Xrotation Yrotation
        JOINT lFoot
        {
          OFFSET -0.73152 -45.1104 -5.12064
          CHANNELS 3 Zrotation Xrotation Yrotation
          End Site
          {
            OFFSET 1.1221 -3.69964 12.103
          }
        }
      }
    }
  }
}
MOTION
Frames:	7
Frame Time:	0.03333
-18.6282 57.02310000000001 19.348499999999998 -145.489774 71.993737 -145.008571 2.673151 10.184543 -0.363295 1.048961 -10.130264 17.603289 6.479533 18.055216 63.641952 -24.016368 -15.945288 -40.123552 0.600935 -0.0771 -14.622106 2.438376 0.139195 6.53341 3.403566 -26.553203 -7.590264 56.549846 4.183766 -23.600114 27.904312 71.726973 89.623765 -19.870657 -41.466615 -13.417548 178.125374 -15.24504 85.880404 29.041755 -76.519464 23.7512 -0.745367 -0.144788 3.570279 88.001625 -57.262943 37.44851 -27.039755 35.541519 22.037693 18.629186 -15.602069 -1.802641 1.909249 -1.381159 0.139147 -155.15736 -2.751401 166.310203 4.496422 -4.355549 1.163599 -0.26116 23.392817 2.524995 156.868453 -18.244547 -164.70512 -163.143456 -4.805845 141.623736 -164.040443 63.495514 -77.314446 -151.589917 -36.614655 -140.009839 -20.912284 -18.918026 1.585454 0.910529 -22.033854 6.966486 44.631648 38.948095 -38.169032 -2.493456 12.69486 1.212864 66.825001 62.152609 -59.007455 2.056609 -1.487814 0.29392 72.863515 -73.826329 88.743405 -13.4882 21.934294 2.016873 157.169886 45.377136 146.31434 25.084434 -36.830143 20.704985 107.990759 56.190396 49.474046 -155.746581 43.360032 -16.832247 54.203847 72.705272 41.106662 154.996559 60.626847 113.727628 173.641149 76.738452 5.287508 -136.974351 4.077969 89.130623 77.071477 5.665981 -173.121333 20.727329 -56.51457 116.395693
-18.8963 56.9894 19.4608 -146.598072 71.932089 -146.175484 0.119736 7.159417 106.140871 -7.617241 -1.235584 -88.964689 -13.084404 27.239733 -94.645529 37.016735 25.855186 115.564817 0.527526 -0.046181 -10.00613 0.765284 0.027967 4.185731 -81.501624 70.412496 86.19362 -179.215941 -16.865738 112.513481 -179.361959 61.860926 -66.818656 -19.453103 -48.931845 -16.136136 -96.485596 34.055173 51.528031 -151.367617 -25.779588 67.891691 -108.391581 31.472514 89.699716 -8.964022 18.024061 -0.646634 -46.89195 48.290562 39.035379 -160.823753 -32.557348 141.535783 -69.104608 72.6001 90.410693 -152.425838 74.785081 157.21907 32.338022 85.775645 13.510783 -25.685755 -31.033411 -34.517641 142.826114 39.529999 -147.670055 55.125107 20.323855 -8.840929 13.744431 -31.070841 127.149336 -125.253921 -56.517736 -115.868316 4.126431 6.337496 -0.465811 99.825751 14.957467 -77.848825 154.536106 -24.91175 -121.036333 -178.841884 -45.847316 -111.376615 39.058693 54.09472 -31.161867 -81.820593 -75.623466 -57.97522 0.01932 -0.258046 -2.116161 -6.353247 26.495297 -4.838046 125.223654 -30.775032 122.780748 146.039189 -3.171408 135.035061 105.050043 54.381478 50.591699 -153.643982 41.355018 143.13533 30.984633 -80.402595 -51.912611 -78.948009 -43.466273 -147.257592 172.001158 78.581757 6.790384 -135.767172 6.553616 -5.246177 20.20229 77.548278 65.477794 -145.803723 13.343069 69.953328
-19.2962 56.8885 19.418 -146.922923 72.571243 -146.230849 1.292117 5.665695 167.13049 -3.069217 5.054675 -149.243606 1.637739 15.203513 32.072652 -7.503999 -26.280038 -8.718207 2.321831 -0.135226 -6.665524 -0.275691 -0.002337 0.971242 -155.294497 -28.721905 169.754754 -39.347265 19.483028 -9.521493 90.627647 -39.937777 -108.304875 -41.608262 27.081307 21.934264 -158.831623 6.987752 85.10677 -5.476967 -53.888509 13.103914 -142.358092 1.482588 115.200464 40.241744 -56.392154 2.15496 86.688625 -75.380668 60.832586 -170.413887 14.522482 149.302947 4.504149 -1.526673 1.231818 2.826124 29.473218 6.949297 7.752586 2.003775 -0.463186 -19.136689 -22.07017 -7.632606 150.021135 22.290912 -154.598243 -137.296584 -2.540953 173.938442 83.978445 -13.984242 -49.438951 -16.705715 -21.692225 -13.250794 -72.19916 -48.319899 -25.228022 115.325055 24.473802 -77.342675 168.254151 -43.736282 -121.401362 -107.843929 -69.538032 -51.06997 2.517544 -0.107457 1.128104 -85.189961 -73.278788 -55.094503 -0.241266 -1.523893 -0.905198 155.31525 -2.104352 -168.51782 105.07655 -47.433219 104.158474 154.350787 13.958052 139.524648 -9.45338 1.998884 -14.571058 -2.710844 -31.839834 -180.0 -43.992191 -70.963073 163.844076 -97.282971 34.864505 1.241182 -179.8945 79.826833 0.0 -139.516483 7.215744 87.488622 81.229497 5.496611 157.010184 155.44493 11.532287 -125.157196
-19.804199999999998 56.8145 19.2481 -147.041955 72.783864 -146.126381 1.437989 10.728672 -0.208867 1.733599 -10.872297 19.124033 9.050694 22.219507 86.735217 -33.405661 -1.275618 -64.266575 7.932412 -0.248861 -3.588139 -2.034669 0.065157 -3.667997 -139.910831 48.428301 147.235435 80.589242 -39.793007 99.652781 2.416613 0.678313 113.048178 -18.519582 -53.36372 -16.735546 -171.630206 -5.949764 88.875642 -141.428734 14.220085 70.245037 -13.418531 19.776271 6.475255 17.367539 -8.584028 3.548039 176.828613 -45.774545 135.935436 -4.256053 -22.315457 2.458566 5.85505 -0.17094 2.120678 -160.478019 -14.935923 173.750437 7.922406 3.165403 -1.93646 -5.603947 -2.567507 4.941961 162.110528 -48.38681 -167.658457 -125.759655 37.934915 109.576926 -170.405801 27.914024 -63.441604 -151.596211 -36.254227 -139.665433 -51.812483 -40.307512 -13.85674 119.78376 25.211713 -85.364569 -2.688184 -10.79145 2.10178 59.168871 49.841876 -46.446187 -5.951546 -28.397248 3.119383 41.519607 57.410337 -39.593793 74.932306 74.815193 -94.543814 85.389813 85.658003 -84.759112 141.84821 8.178337 143.841025 156.500261 53.178647 158.142605 137.636234 71.064784 36.36223 171.97183 45.429379 5.625515 60.022913 69.954799 30.17903 -47.095147 -21.982931 -117.628596 0.049595 -4.679687 0.607872 63.57853 -45.923819 -180.0 78.120088 -26.411282 173.994908 2.744354 28.975895 85.711904
-20.3727 56.650999999999996 19.0889 -146.266301 72.9207 -145.317063 1.432148 11.101125 -0.0 1.973547 -11.421483 19.737537 9.755276 24.37728 102.310341 -34.53923 9.054628 -78.19423 14.793851 -0.604299 -4.652284 -6.534709 0.14712 -2.576644 -137.40493 -73.155607 -163.417023 85.030321 54.182693 -96.989513 -42.584485 8.530821 143.331661 -162.754512 -66.135463 176.083615 -176.511977 -11.702764 89.755413 -8.847975 -55.920707 -0.904918 25.127705 -50.806014 -12.115232 -61.154209 45.979762 55.968256 -165.650965 -8.949175 136.567166 0.77659 -13.231244 14.027436 -67.664084 71.021645 91.866367 -159.056885 -11.615068 -179.023254 21.299766 39.900321 5.241085 -152.872879 4.131976 -146.368787 17.08496 39.823127 -19.277678 95.718853 14.076885 -101.606036 -73.107286 -23.206195 90.506584 -171.500817 9.843564 -153.104791 -1.548032 -2.048955 -1.799857 20.742758 14.765368 -9.515024 111.567643 33.241947 -89.483873 76.001328 48.411462 -55.457485 5.203676 1.243008 -1.452637 -2.099993 13.078479 -4.734282 -3.148376 10.560259 1.760812 -24.167393 -61.327914 -16.038702 -25.49586 86.730367 -15.13427 82.264291 -56.026819 86.150192 15.181511 0.809691 7.511188 -37.035486 -24.963028 -100.937619 -82.726624 14.730451 -1.172696 -93.093138 -78.827922 -9.576707 13.348724 -3.302118 12.351048 40.609977 -52.789131 34.814698 -20.67296 80.242253 129.808717 -98.886462 -59.377025 155.283576
-20.9957 56.6253 19.095699999999997 -145.495126 72.907838 -144.529572 1.639996 11.209487 -0.0 2.172839 -11.663401 19.683238 8.575421 19.023613 73.663004 -28.961109 -7.14996 -53.920853 19.143562 -1.493876 -8.841774 -10.166082 -0.64262 7.215088 -2.435218 25.835873 2.221589 63.622556 0.807468 19.000098 -91.525333 -44.259744 92.283008 -162.822614 -20.756203 154.405549 -95.951899 38.285501 53.496483 -93.275218 -6.449371 60.600188 -151.874827 -28.485363 128.073419 -161.753072 -49.756752 123.646163 0.792973 -12.625786 4.930925 -156.493347 11.26542 155.978812 -140.381633 2.911321 178.071768 -137.825906 -59.712514 -157.97785 -6.033228 -21.88728 -12.842629 -135.890297 -14.760233 -141.992972 3.651214 8.66041 -6.757033 -81.935394 -18.014749 -46.021667 -1.227507 -6.031505 -86.94012 9.661356 51.862479 -5.648618 94.628474 36.402687 -54.024039 168.112503 -37.712972 -85.150782 132.130797 16.405962 -106.994206 -1.013561 3.296679 -0.74704 87.091802 59.433921 -72.530562 -1.477914 -0.426604 -6.710754 -1.438025 -0.994053 5.68226 -1.727334 17.83473 -13.047545 154.24919 31.243083 143.987595 -8.736186 31.857811 -5.162658 165.329609 74.793428 15.178534 160.168462 43.343536 -22.754942 -60.726948 59.475157 48.930582 -98.799968 -6.515519 -0.119791 -0.245136 -4.638678 0.294323 62.043949 -44.28302 53.68965 -25.274657 73.848416 -59.938864 117.749622 -63.95971 -140.791704
-21.6462 56.702799999999996 19.2925 -145.221467 72.788267 -144.220927 1.817924 11.073111 -0.274906 2.357685 -11.559189 19.140751 3.635974 32.559895 166.16116 -18.11512 39.83576 -135.710563 18.732471 -2.371664 -14.305905 -8.682026 -1.144203 14.987555 -150.819338 21.905473 158.923246 -36.82429 -12.590412 32.474095 -41.408334 65.573232 -105.735418 -148.682268 18.850873 134.866708 -78.562061 39.325488 41.802414 -174.100002 -41.04378 78.139286 35.148674 -58.616682 -7.159095 -177.458687 -35.563646 94.113824 -171.149434 -21.375218 139.153606 -10.886894 11.337666 8.500443 -142.460012 4.607736 177.677528 10.981162 62.855139 -6.789384 -117.995277 -30.673677 -121.948905 -142.396401 11.516544 -140.136995 164.441273 -49.440617 -164.862998 74.816104 -36.363534 84.158411 -171.176819 4.818235 93.026426 17.779878 64.265854 -10.01649 80.293997 39.084247 -44.975258 87.374575 2.769757 -60.134564 142.251268 -0.927919 -116.22753 91.169463 50.216294 -65.116484 172.146369 -22.953798 -143.464865 165.272161 6.66059 -145.817428 144.382853 -11.819001 171.987768 -12.166159 0.168452 11.802681 130.699368 -24.181711 119.741054 145.900678 12.753435 133.403071 164.051428 74.583343 16.511968 161.724008 42.526293 -73.12387 -75.495119 14.240362 87.180997 -94.553045 8.327493 0.36226 0.239612 -3.3533 -0.293534 64.025965 -45.717798 160.068863 79.804818 -6.861638 148.755522 12.352337 -7.097377 125.935445
